<!-- Generator: Adobe Illustrator 18.1.0, SVG Export Plug-In  -->
<svg version="1.1"
	 xmlns="http://www.w3.org/2000/svg" xmlns:xlink="http://www.w3.org/1999/xlink" xmlns:a="http://ns.adobe.com/AdobeSVGViewerExtensions/3.0/"
	 x="0px" y="0px" width="63.975px" height="63.975px" viewBox="0 0 63.975 63.975" enable-background="new 0 0 63.975 63.975"
	 xml:space="preserve">
<defs>
</defs>
<g>
	<circle fill="#0098FF" cx="31.987" cy="31.988" r="31.988"/>
	<g>
		<path fill="#2E3192" d="M27.002,13.664c0.211,0.463,0.503,0.809,0.505,1.156c0.018,3.895,0.653,7.68,1.893,11.368
			c2.191,6.517,5.96,12.04,10.676,16.967c0.159,0.166,0.326,0.325,0.492,0.485c0.693,0.669,1.48,1.288,1.006,2.452
			c-0.077,0.188-0.045,0.501,0.067,0.672c0.598,0.915,0.042,1.478-0.559,2.052c-0.895,0.853-1.758,1.743-2.687,2.557
			c-0.22,0.193-0.669,0.253-0.978,0.194c-0.915-0.174-1.757-0.139-2.575,0.373c-0.217,0.136-0.609,0.174-0.845,0.075
			c-6.382-2.684-12.198-6.224-16.992-11.3c-0.381-0.403-0.578-0.73-0.363-1.352c0.364-1.052,0.069-2.023-0.711-2.86
			c-0.209-0.224-0.384-0.647-0.327-0.929c1.329-6.57,3.678-12.711,7.825-18.057c0.88-1.135,1.887-2.171,2.845-3.245
			C26.419,14.107,26.615,13.984,27.002,13.664z"/>
		<path fill="#2E3192" d="M29.433,15.892c0-0.404,0.004-0.807-0.001-1.21c-0.019-1.431,0.816-2.108,2.153-1.707
			c6.528,1.957,12.557,4.849,17.668,9.458c0.509,0.459,0.891,0.826,0.644,1.653c-0.288,0.964,0.111,1.844,0.818,2.593
			c0.211,0.224,0.361,0.662,0.305,0.957c-0.985,5.209-2.616,10.192-5.261,14.817c-0.316,0.552-0.695,0.657-1.306,0.812
			c-1.341,0.341-1.989-0.4-2.747-1.19c-4.946-5.158-8.92-10.908-10.957-17.85C29.951,21.505,29.512,18.727,29.433,15.892z"/>
		<path fill="#2E3192" d="M13.176,35.773c-0.299-0.472-0.616-0.934-0.895-1.418C9.419,29.394,8,24.018,7.713,18.326
			c-0.018-0.349,0.074-0.753,0.248-1.054c1.436-2.487,3.252-4.673,5.385-6.589c0.231-0.207,0.616-0.384,0.91-0.357
			c3.435,0.308,6.868,0.642,10.298,1.007c0.717,0.076,0.983,1.026,0.459,1.553c-6.002,6.03-9.39,13.409-11.182,21.617
			c-0.089,0.407-0.236,0.801-0.355,1.201C13.375,35.726,13.276,35.749,13.176,35.773z"/>
		<path fill="#2E3192" d="M53.61,51.764c-1.997-1.46-4.032-2.947-6.067-4.435c-0.023-0.017-0.047-0.034-0.067-0.054
			c-0.119-0.125-0.463-3.255-0.37-3.408c2.891-4.815,4.697-10.032,5.784-15.521c0.068-0.341,0.346-0.641,0.526-0.96
			c0.265,0.225,0.593,0.407,0.787,0.683c2.82,4.01,4.635,8.454,5.635,13.241c0.05,0.238,0.044,0.524-0.039,0.749
			c-1.315,3.55-3.265,6.713-5.849,9.482C53.894,51.6,53.81,51.634,53.61,51.764z"/>
		<path fill="#2E3192" d="M30.806,10.572c0.189-0.159,0.36-0.339,0.562-0.469c2.305-1.479,4.672-2.836,7.304-3.666
			c1.116-0.352,2.262-0.645,3.325-1.12c0.863-0.385,1.549-0.151,2.269,0.232c1.285,0.683,2.606,1.31,3.834,2.085
			c1.253,0.79,2.426,1.71,3.598,2.62c0.207,0.161,0.332,0.554,0.33,0.838c-0.021,3.425-0.069,6.851-0.122,10.276
			c-0.008,0.508-0.265,0.756-0.697,0.341c-5.735-5.507-12.663-8.8-20.218-10.941C30.944,10.757,30.913,10.69,30.806,10.572z"/>
		<path fill="#2E3192" d="M14.775,41.214c0.233,0.179,0.378,0.259,0.484,0.375c4.867,5.374,10.842,9.134,17.436,11.996
			c0.287,0.125,0.681,0.218,0.809,0.447c0.212,0.379,0.177,0.793-0.323,1.076c-3.048,1.729-6.265,3.037-9.659,3.898
			c-0.329,0.083-0.743-0.004-1.075-0.128c-2.634-0.985-5.068-2.345-7.271-4.092c-0.335-0.266-0.672-0.779-0.672-1.179
			c-0.002-3.854,0.065-7.709,0.121-11.563C14.63,41.804,14.71,41.564,14.775,41.214z"/>
		<path fill="#2E3192" d="M12.343,52.183C4.733,45.116,1.435,32.128,5.99,21.42c0.215,1.126,0.396,2.125,0.598,3.121
			c0.844,4.16,2.404,8.034,4.607,11.66c0.168,0.277,0.21,0.765,0.086,1.062c-0.578,1.388-0.245,2.727,0.952,3.701
			c0.222,0.181,0.441,0.532,0.436,0.8c-0.059,3.394-0.158,6.788-0.251,10.181C12.417,52.022,12.372,52.097,12.343,52.183z"/>
		<path fill="#2E3192" d="M54.147,12.777c5.652,5.692,8.982,15.852,6.86,24.912c-0.619-1.574-1.111-3.174-1.859-4.644
			c-1.093-2.148-2.383-4.195-3.554-6.305c-0.166-0.299-0.265-0.752-0.166-1.06c0.447-1.396,0.083-2.635-1.085-3.525
			c-0.214-0.163-0.465-0.465-0.462-0.7c0.037-2.848,0.118-5.695,0.191-8.542C54.073,12.867,54.121,12.823,54.147,12.777z"/>
		<path fill="#2E3192" d="M52.408,53.215c-1.337,0.999-2.536,1.934-3.784,2.796c-0.26,0.18-0.728,0.194-1.059,0.114
			c-2.509-0.605-5.012-1.238-7.505-1.906c-0.297-0.08-0.647-0.387-0.737-0.666c-0.068-0.209,0.187-0.595,0.394-0.808
			c1.119-1.155,2.254-2.297,3.42-3.405c0.231-0.219,0.617-0.302,0.947-0.382c0.244-0.06,0.56,0.075,0.765-0.03
			c1.104-0.566,1.788,0.169,2.503,0.77c0.541,0.455,0.989,1.032,1.565,1.429c0.743,0.513,1.576,0.895,2.362,1.347
			C51.601,52.659,51.901,52.88,52.408,53.215z"/>
		<path fill="#2E3192" d="M26.976,60.201c2.367-1.147,4.738-2.309,7.126-3.436c0.229-0.108,0.607-0.091,0.835,0.026
			c1.362,0.695,2.53,0.562,3.653-0.446c0.172-0.154,0.459-0.355,0.632-0.308c2.071,0.558,4.13,1.159,6.329,1.788
			C39.506,60.604,33.352,61.544,26.976,60.201z"/>
		<path fill="#2E3192" d="M16.409,8.246c3.852-2.625,8.051-4.257,12.751-4.845c-0.364,1.594-0.687,3.075-1.057,4.544
			c-0.044,0.176-0.335,0.31-0.535,0.421C27,8.678,26.426,8.979,25.844,9.261c-0.213,0.103-0.466,0.225-0.685,0.199
			c-2.88-0.337-5.757-0.698-8.634-1.056C16.508,8.402,16.494,8.364,16.409,8.246z"/>
		<path fill="#2E3192" d="M29.892,8.552c0.447-1.69,0.877-3.378,1.365-5.05c0.048-0.166,0.449-0.321,0.689-0.324
			c2.388-0.037,4.769,0.034,7.008,0.764C35.996,5.447,33.005,6.969,29.892,8.552z"/>
	</g>
</g>
</svg>